<?xml version="1.0" standalone="no"?>
<!DOCTYPE svg PUBLIC "-//W3C//DTD SVG 20010904//EN"
 "http://www.w3.org/TR/2001/REC-SVG-20010904/DTD/svg10.dtd">
<svg version="1.0" xmlns="http://www.w3.org/2000/svg"
 width="1914.000000pt" height="984.000000pt" viewBox="0 0 1914.000000 984.000000"
 preserveAspectRatio="xMidYMid meet">

<g transform="translate(0.000000,984.000000) scale(0.100000,-0.100000)"
fill="#000000" stroke="none">
<path d="M5688 8153 c-26 -13 -28 -18 -28 -77 0 -58 -2 -64 -35 -96 -19 -19
-35 -41 -35 -51 0 -9 -6 -22 -14 -28 -7 -6 -16 -32 -19 -58 -3 -28 -11 -50
-21 -55 -23 -13 -20 -25 17 -62 18 -18 46 -57 61 -87 15 -30 34 -65 42 -79 16
-30 19 -136 3 -146 -6 -3 -8 -16 -5 -27 3 -12 -1 -28 -8 -37 -24 -26 -56 -90
-56 -110 0 -10 -4 -22 -10 -25 -5 -3 -10 -14 -10 -24 0 -10 -9 -26 -20 -36
-12 -11 -20 -31 -20 -49 0 -17 -7 -44 -15 -60 -8 -15 -15 -37 -15 -47 0 -10
-4 -21 -10 -24 -6 -4 -10 -82 -10 -200 0 -118 4 -196 10 -200 6 -3 10 -26 10
-50 0 -24 4 -46 9 -49 5 -4 12 -24 16 -46 4 -22 11 -42 16 -46 5 -3 9 -18 9
-34 0 -16 5 -32 10 -35 6 -3 10 -17 10 -30 0 -13 5 -27 10 -30 6 -3 10 -14 10
-24 0 -10 9 -26 20 -36 11 -10 20 -30 20 -45 0 -15 7 -33 15 -40 8 -7 15 -25
15 -41 0 -15 5 -31 10 -34 6 -3 10 -14 10 -24 0 -10 9 -26 20 -36 11 -10 20
-23 20 -30 0 -7 9 -20 21 -31 11 -10 29 -37 39 -60 21 -45 152 -182 210 -219
19 -12 44 -32 54 -44 11 -11 23 -21 27 -21 5 0 29 -16 55 -35 25 -19 51 -35
59 -35 7 0 18 -7 25 -15 7 -9 29 -22 49 -31 20 -9 44 -20 53 -25 10 -5 24 -9
32 -9 7 0 19 -7 26 -15 7 -9 29 -15 51 -15 21 0 41 -4 44 -10 3 -5 28 -12 56
-16 27 -4 52 -11 55 -15 3 -5 18 -9 35 -9 16 0 38 -4 49 -10 11 -5 29 -14 40
-20 11 -5 44 -10 74 -10 30 0 58 -4 61 -10 3 -5 42 -10 85 -10 43 0 82 -4 85
-10 4 -6 112 -10 291 -10 183 0 284 4 284 10 0 6 24 10 54 10 30 0 58 5 61 10
3 6 28 10 56 10 27 0 49 5 49 10 0 6 14 10 30 10 17 0 30 5 30 10 0 6 16 10
35 10 19 0 35 5 35 10 0 6 9 10 19 10 11 0 26 7 35 15 8 8 21 15 28 15 19 0
68 23 68 33 0 4 9 7 20 7 11 0 20 5 20 10 0 6 7 10 15 10 8 0 15 5 15 10 0 6
14 10 31 10 24 0 30 4 27 18 -2 10 -11 16 -21 14 -25 -4 -21 6 13 38 16 15 30
35 30 44 0 9 7 16 15 16 24 0 17 18 -12 34 l-28 15 48 1 c46 0 64 15 30 26
-10 3 -26 10 -35 15 -10 5 -24 9 -33 9 -8 0 -19 9 -25 20 -6 11 -16 20 -23 20
-7 0 -21 14 -32 31 -11 16 -35 37 -53 46 -31 15 -34 15 -56 -6 -22 -21 -29
-21 -344 -21 -203 0 -323 4 -327 10 -3 6 -46 10 -95 10 -49 0 -91 4 -94 9 -6
8 -24 12 -128 27 -24 3 -47 10 -53 15 -5 5 -17 9 -26 9 -9 0 -22 6 -28 14 -7
8 -36 26 -65 40 -30 15 -57 33 -60 41 -3 8 -15 15 -26 15 -12 0 -19 4 -16 8 2
4 -9 14 -26 21 -17 8 -63 47 -103 87 -40 41 -76 74 -81 75 -11 1 -164 183
-164 196 0 6 -9 18 -20 28 -11 10 -32 43 -47 74 -15 31 -35 68 -45 83 -10 14
-18 35 -18 46 0 11 -7 25 -15 32 -8 7 -15 21 -15 31 0 10 -9 34 -20 54 -11 20
-20 44 -20 55 0 10 -5 32 -11 47 -6 15 -15 37 -20 48 -4 11 -11 43 -14 70 -4
28 -10 55 -15 60 -15 20 -23 83 -27 228 -3 99 -1 147 6 147 6 0 11 7 11 15 0
36 -63 115 -92 115 -10 0 -18 8 -19 18 0 9 -1 35 -2 57 -2 32 -5 39 -19 37
-13 -2 -18 4 -18 22 0 14 -4 28 -10 31 -5 3 -10 19 -10 35 0 16 -4 32 -10 35
-5 3 -10 16 -10 28 0 12 -7 35 -15 51 -8 15 -15 39 -15 51 0 16 -9 27 -30 37
-16 7 -30 20 -30 29 0 9 -16 31 -35 48 -32 27 -35 35 -35 83 0 56 -3 64 -35
89 -17 14 -24 14 -47 2z m201 -450 c29 6 31 5 31 -23 0 -16 5 -32 10 -35 6 -3
10 -17 10 -30 0 -13 5 -27 10 -30 6 -3 10 -16 10 -29 0 -13 7 -37 16 -54 11
-24 22 -32 42 -32 45 0 52 -32 52 -231 0 -108 4 -180 10 -184 6 -3 10 -21 10
-39 0 -17 4 -36 10 -42 5 -5 12 -32 16 -59 5 -47 14 -76 35 -117 5 -10 9 -29
9 -43 0 -13 9 -40 20 -60 11 -20 20 -44 20 -54 0 -10 7 -24 15 -31 8 -7 15
-21 15 -32 0 -11 8 -32 18 -46 10 -15 31 -52 45 -83 15 -32 35 -63 43 -70 9
-7 19 -21 23 -30 6 -18 136 -174 160 -193 7 -6 50 -47 95 -91 45 -44 103 -90
129 -103 26 -13 47 -27 47 -32 0 -4 21 -19 48 -33 26 -13 69 -36 95 -51 29
-15 64 -26 87 -26 21 0 42 -4 45 -10 3 -5 21 -10 40 -10 19 0 37 -4 40 -10 3
-5 46 -10 95 -10 49 0 92 -4 95 -10 4 -6 128 -10 338 -10 l332 0 20 -27 c11
-15 28 -34 38 -42 10 -9 31 -26 45 -38 15 -13 37 -23 50 -23 12 0 22 -6 22
-13 0 -21 -24 -67 -35 -67 -20 -1 -77 -58 -70 -70 4 -6 14 -9 22 -6 8 3 11 1
8 -4 -3 -6 -13 -10 -22 -10 -8 0 -26 -9 -40 -20 -14 -11 -36 -20 -48 -20 -12
0 -28 -7 -35 -15 -7 -8 -21 -15 -31 -15 -10 0 -21 -4 -24 -10 -3 -5 -19 -10
-35 -10 -16 0 -32 -4 -35 -10 -3 -5 -16 -10 -29 -10 -12 0 -26 -4 -32 -9 -9
-9 -58 -18 -154 -27 -30 -3 -59 -10 -64 -15 -14 -13 -523 -12 -531 1 -3 6 -42
10 -85 10 -43 0 -82 5 -85 10 -3 6 -31 10 -61 10 -30 0 -64 5 -77 12 -49 25
-58 28 -86 28 -17 0 -33 5 -36 10 -3 6 -21 10 -39 10 -19 0 -39 7 -46 15 -7 9
-29 15 -55 15 -25 0 -60 10 -86 23 -24 13 -56 27 -71 30 -14 4 -40 18 -56 32
-17 14 -36 25 -42 25 -7 0 -32 16 -56 35 -23 19 -46 35 -51 35 -5 0 -22 14
-38 30 -16 17 -34 30 -40 30 -20 0 -184 171 -206 216 -13 24 -31 52 -41 61
-10 9 -18 21 -18 28 0 7 -9 20 -20 30 -11 10 -20 26 -20 36 0 10 -4 21 -10 24
-5 3 -10 16 -10 29 0 12 -7 31 -15 42 -8 10 -15 31 -15 45 0 14 -9 34 -20 44
-11 10 -20 26 -20 36 0 10 -4 21 -10 24 -5 3 -10 17 -10 30 0 13 -4 27 -10 30
-5 3 -10 17 -10 29 0 13 -7 37 -15 52 -8 16 -15 39 -15 51 0 12 -4 25 -10 28
-5 3 -10 26 -10 50 0 24 -4 47 -10 50 -6 4 -10 75 -10 181 0 109 4 174 10 174
6 0 10 13 10 29 0 16 4 31 10 33 5 2 13 26 16 53 4 29 15 57 26 66 10 9 18 26
18 38 0 11 5 21 10 21 6 0 10 14 10 30 0 17 5 30 10 30 6 0 10 9 10 20 0 11 5
20 10 20 6 0 10 7 10 15 0 8 4 15 9 15 5 0 12 9 16 19 3 11 14 23 24 26 27 8
61 40 61 57 0 18 -42 102 -63 126 -8 9 -26 38 -41 65 l-26 47 43 1 c23 0 67 0
98 -1 59 -1 75 10 63 48 -5 13 -4 14 4 3 7 -9 20 -12 41 -8z m2178 -1909 c-3
-3 -12 -4 -19 -1 -8 3 -5 6 6 6 11 1 17 -2 13 -5z"/>
</g>
</svg>
